<?xml version="1.0" encoding="utf-8"?>
<!-- Generator: Adobe Illustrator 16.0.0, SVG Export Plug-In . SVG Version: 6.00 Build 0)  -->
<!DOCTYPE svg PUBLIC "-//W3C//DTD SVG 1.1//EN" "http://www.w3.org/Graphics/SVG/1.1/DTD/svg11.dtd">
<svg version="1.1" xmlns="http://www.w3.org/2000/svg" xmlns:xlink="http://www.w3.org/1999/xlink" x="0px" y="0px" width="612px"
	 height="792px" viewBox="0 0 612 792" enable-background="new 0 0 612 792" xml:space="preserve">
	 //612 792
<g id="Layer_4" display="none">
	<rect y="75" display="inline" fill="#020202" width="612" height="584"/>
</g>
<g id="Layer_1">
	<path display="none" fill="#FFFFFF" d="M115.292,373.235h380.341c2.146,0,3.882,1.47,3.882,3.285s-1.736,3.285-3.882,3.285H115.292
		c-2.145,0-3.882-1.47-3.882-3.285S113.146,373.235,115.292,373.235L115.292,373.235z M115.292,373.235"/>
	<g display="none">
		<defs>
			<rect id="SVGID_1_" x="112.375" y="397.009" width="386.175" height="72.866"/>
		</defs>
		<clipPath id="SVGID_2_" display="inline">
			<use xlink:href="#SVGID_1_"  overflow="visible"/>
		</clipPath>
		<path display="inline" clip-path="url(#SVGID_2_)" fill="#FFFFFF" d="M152.262,468.552H117.95c-2.175,0-3.646-0.557-4.411-1.674
			c-0.763-1.119-1.146-2.353-1.146-3.705v-60.951c0-2.823,1.706-4.235,5.115-4.235c3.53,0,5.293,1.412,5.293,4.235v57.422h29.461
			c2.117,0,3.175,1.44,3.175,4.322C155.556,467.023,154.499,468.552,152.262,468.552L152.262,468.552z M201.483,468.552h-32.285
			c-2.175,0-3.646-0.557-4.411-1.674c-0.764-1.119-1.147-2.353-1.147-3.705v-59.452c0-1.354,0.384-2.577,1.147-3.669
			c0.765-1.083,2.236-1.625,4.411-1.625h30.698c2.175,0,3.322,1.471,3.439,4.411c0.117,2.998-1.03,4.5-3.439,4.5h-25.847v52.306
			h27.434c2.175,0,3.292,1.44,3.351,4.322C204.953,467.023,203.834,468.552,201.483,468.552L201.483,468.552z M196.63,432.034
			c0,2.058-0.722,3.793-2.168,5.205c-1.436,1.411-3.181,2.116-5.239,2.116c-2,0-3.706-0.705-5.118-2.116
			c-1.41-1.412-2.117-3.147-2.117-5.205s0.707-3.793,2.117-5.204c1.412-1.41,3.118-2.116,5.118-2.116
			c2.058,0,3.803,0.706,5.239,2.116C195.908,428.241,196.63,429.977,196.63,432.034L196.63,432.034z M245.675,442.532h-12.174
			c-1,0-1.78-0.401-2.346-1.199c-0.564-0.789-0.846-1.858-0.846-3.211c0-3,1.24-4.5,3.721-4.5h9.351
			c2.165,0,3.706-0.616,4.624-1.852c0.917-1.234,1.375-2.588,1.375-4.058v-14.467c0-1.47-0.457-2.823-1.375-4.057
			c-0.917-1.234-2.459-1.852-4.624-1.852h-18.523v57.6c0,2.821-1.766,4.233-5.293,4.233c-3.422,0-5.133-1.412-5.133-4.233v-61.217
			c0-2.117,0.535-3.529,1.604-4.233c1.059-0.707,2.354-1.061,3.882-1.061h25.758c1.47,0,3.027,0.326,4.675,0.972
			c1.633,0.646,3.222,1.47,4.762,2.47h-0.106c1.542,1.117,2.717,2.577,3.527,4.375c0.835,1.788,1.254,3.856,1.254,6.21v15.967
			c0,4.762-1.594,8.32-4.781,10.67c-1.516,1.119-3.069,1.974-4.656,2.56C248.75,442.237,247.19,442.532,245.675,442.532
			L245.675,442.532z M296.729,407.338v57.6c0,2.821-1.763,4.233-5.291,4.233c-3.47,0-5.205-1.412-5.205-4.233v-57.6h-15.438
			c-2.117,0-3.233-1.502-3.351-4.5c0-2.94,1.117-4.411,3.351-4.411h41.371c2.234,0,3.292,1.471,3.174,4.411
			c0,2.998-1.057,4.5-3.174,4.5H296.729z M337.307,398.427h19.228c1.528,0,3.116,0.326,4.765,0.972
			c1.646,0.646,3.233,1.47,4.762,2.47h-0.087c1.529,1.117,2.704,2.577,3.527,4.375c0.822,1.788,1.235,3.856,1.235,6.21v41.897
			c0,4.764-1.588,8.322-4.763,10.674c-1.528,1.119-3.105,1.981-4.729,2.594c-1.611,0.624-3.182,0.934-4.71,0.934h-19.228
			c-1.529,0-3.105-0.31-4.73-0.934c-1.611-0.612-3.182-1.475-4.71-2.594c-1.528-1.175-2.704-2.629-3.528-4.357
			c-0.822-1.741-1.234-3.847-1.234-6.316v-41.897c0-2.354,0.412-4.422,1.234-6.21c0.824-1.798,2-3.258,3.528-4.375h-0.087
			c1.529-1,3.115-1.824,4.762-2.47S335.777,398.427,337.307,398.427L337.307,398.427z M339.511,459.644h14.818
			c2.177,0,3.706-0.617,4.586-1.852c0.883-1.235,1.325-2.617,1.325-4.146v-40.399c0-1.47-0.442-2.823-1.325-4.057
			c-0.88-1.234-2.409-1.852-4.586-1.852h-14.818c-2.177,0-3.706,0.617-4.589,1.852c-0.879,1.233-1.322,2.587-1.322,4.057v40.399
			c0,1.529,0.443,2.911,1.322,4.146C335.805,459.026,337.334,459.644,339.511,459.644L339.511,459.644z M423.132,449.942v-47.721
			c0-2.823,1.734-4.235,5.204-4.235s5.204,1.412,5.204,4.235v60.862c0,2.06-1.089,3.558-3.264,4.498h0.089
			c-0.94,0.413-1.941,0.736-2.999,0.97c-1.061,0.236-2.088,0.354-3.088,0.354c-0.766,0-1.559-0.069-2.382-0.21
			c-0.822-0.153-1.605-0.395-2.345-0.725c-0.731-0.316-1.405-0.759-2.03-1.322c-0.611-0.553-1.093-1.24-1.446-2.064l-19.142-47.721
			l-2.381,0.265v47.631c0,2.823-1.766,4.236-5.294,4.236c-3.47,0-5.204-1.413-5.204-4.236v-60.773c0-2.412,1.059-4.027,3.177-4.852
			c1.94-0.766,3.999-1.147,6.174-1.147c1.528,0,3.071,0.306,4.624,0.918c1.563,0.624,2.755,1.786,3.58,3.493l19.052,47.809
			L423.132,449.942z M488.124,414.482h-12.703c-1.411,0-2.147-0.971-2.206-2.912c-0.059-1.999,0.677-2.999,2.206-2.999
			c0.941,0,2.058-0.118,3.353-0.352c1.295-0.236,2.734-0.56,4.322-0.972c1.47-0.529,2.765-1.429,3.881-2.699
			c1.117-1.259,1.911-2.739,2.381-4.445c0.354-0.941,0.941-1.704,1.766-2.293c0.822-0.587,1.91-0.853,3.264-0.793
			c2.763,0.117,4.146,1.557,4.146,4.322v64.392c0,2.763-1.735,4.146-5.204,4.146c-3.471,0-5.205-1.384-5.205-4.146V414.482z
			 M488.124,414.482"/>
	</g>
	<g>
		<defs>
			<rect id="SVGID_3_" x="261.904" y="255.329" width="87.116" height="100.703"/>
		</defs>
		<clipPath id="SVGID_4_">
			<use xlink:href="#SVGID_3_"  overflow="visible"/>
		</clipPath>
		<path clip-path="url(#SVGID_4_)" fill="#FFFFFF" d="M305.461,255.329l-43.558,25.176v50.351l43.558,25.176l43.558-25.176v-50.351
			L305.461,255.329z M281.618,288.897l23.843-28.508l22.646,28.508H281.618z M328.506,291.561l-23.044,41.296l-24.242-41.296
			H328.506z M302.931,333.653l-36.897-5.994l13.054-34.5L302.931,333.653z M330.639,293.293l14.252,34.501l-36.896,5.994
			L330.639,293.293z M331.036,288.499l-22.109-28.109l35.964,20.782L331.036,288.499z M278.554,288.499l-12.521-7.327l35.698-20.646
			L278.554,288.499z M277.223,290.763l-12.655,33.302v-40.629L277.223,290.763z M304.13,336.585v15.586l-37.431-21.581
			L304.13,336.585z M306.795,336.585l37.431-5.995l-37.431,21.581V336.585z M332.502,290.763l13.987-7.46v41.16L332.502,290.763z
			 M332.502,290.763"/>
	</g>
	<g>
		<path fill="#FFFFFF" d="M356.831,351.77c0-1.808,1.8-3.287,4-3.287h59.959c2.2,0,4,1.479,4,3.287s-1.8,3.287-4,3.287h-59.959
			C358.631,355.057,356.831,353.578,356.831,351.77z"/>
	</g>
	<g>
		<path fill="#FFFFFF" d="M186.134,351.77c0-1.808,1.8-3.287,4-3.287h59.959c2.2,0,4,1.479,4,3.287s-1.8,3.287-4,3.287h-59.959
			C187.934,355.057,186.134,353.578,186.134,351.77z"/>
	</g>
	<g>
		<path fill="#FFFFFF" d="M118.018,448.905c-2.175,0-3.646-0.561-4.409-1.684c-0.765-1.121-1.146-2.361-1.146-3.721v-61.21
			c0-2.835,1.704-4.252,5.114-4.252c3.527,0,5.29,1.417,5.29,4.252v57.667h29.449c2.116,0,3.174,1.448,3.174,4.341
			c0.117,3.071-0.941,4.606-3.174,4.606H118.018z"/>
		<path fill="#FFFFFF" d="M169.243,448.905c-2.175,0-3.645-0.561-4.408-1.684c-0.765-1.121-1.146-2.361-1.146-3.721v-59.704
			c0-1.358,0.382-2.583,1.146-3.677c0.763-1.092,2.233-1.639,4.408-1.639h30.683c2.174,0,3.32,1.477,3.438,4.43
			c0.117,3.012-1.029,4.518-3.438,4.518h-25.833v52.529h27.42c2.174,0,3.292,1.448,3.351,4.341c0.117,3.071-1,4.606-3.351,4.606
			H169.243z M196.664,412.231c0,2.068-0.721,3.81-2.16,5.227c-1.441,1.417-3.189,2.126-5.246,2.126
			c-1.999,0-3.703-0.709-5.114-2.126s-2.116-3.158-2.116-5.227c0-2.066,0.706-3.809,2.116-5.227
			c1.411-1.417,3.115-2.126,5.114-2.126c2.057,0,3.805,0.709,5.246,2.126C195.943,408.423,196.664,410.165,196.664,412.231z"/>
		<path fill="#FFFFFF" d="M233.518,422.773c-1,0-1.779-0.399-2.337-1.196c-0.559-0.797-0.837-1.874-0.837-3.233
			c0-3.012,1.234-4.518,3.703-4.518h9.346c2.174,0,3.717-0.62,4.629-1.86c0.911-1.24,1.366-2.598,1.366-4.075v-14.527
			c0-1.476-0.456-2.834-1.366-4.074c-0.912-1.24-2.455-1.86-4.629-1.86h-18.516v57.845c0,2.834-1.764,4.252-5.291,4.252
			c-3.41,0-5.114-1.418-5.114-4.252v-61.477c0-2.126,0.529-3.544,1.587-4.252c1.058-0.709,2.35-1.063,3.879-1.063h25.745
			c1.469,0,3.027,0.325,4.673,0.975c1.645,0.65,3.232,1.477,4.761,2.48h-0.088c1.528,1.122,2.703,2.584,3.527,4.385
			c0.822,1.802,1.234,3.884,1.234,6.245V408.6c0,4.783-1.587,8.357-4.761,10.719c-1.529,1.122-3.086,1.979-4.673,2.568
			c-1.587,0.592-3.146,0.887-4.673,0.887H233.518z"/>
		<path fill="#FFFFFF" d="M296.734,445.273c0,2.834-1.763,4.252-5.29,4.252c-3.469,0-5.202-1.418-5.202-4.252v-57.845h-15.43
			c-2.116,0-3.233-1.506-3.35-4.518c0-2.953,1.116-4.43,3.35-4.43h41.352c2.232,0,3.291,1.477,3.174,4.43
			c0,3.012-1.059,4.518-3.174,4.518h-15.43V445.273z"/>
		<path fill="#FFFFFF" d="M356.512,378.481c1.527,0,3.114,0.325,4.761,0.975c1.646,0.65,3.232,1.477,4.762,2.48h-0.089
			c1.528,1.122,2.703,2.584,3.527,4.385c0.822,1.802,1.234,3.884,1.234,6.245v42.077c0,4.783-1.587,8.356-4.762,10.718
			c-1.529,1.123-3.101,1.993-4.717,2.613c-1.617,0.62-3.189,0.931-4.717,0.931h-19.221c-1.529,0-3.102-0.311-4.718-0.931
			c-1.617-0.62-3.189-1.49-4.717-2.613c-1.529-1.181-2.704-2.642-3.526-4.385c-0.824-1.741-1.234-3.854-1.234-6.333v-42.077
			c0-2.361,0.41-4.443,1.234-6.245c0.822-1.801,1.997-3.263,3.526-4.385h-0.088c1.527-1.004,3.114-1.83,4.761-2.48
			c1.646-0.649,3.232-0.975,4.762-0.975H356.512z M354.308,439.958c2.174,0,3.703-0.62,4.585-1.86
			c0.881-1.24,1.322-2.627,1.322-4.163v-40.571c0-1.476-0.441-2.834-1.322-4.074c-0.882-1.24-2.411-1.86-4.585-1.86h-14.813
			c-2.176,0-3.703,0.62-4.585,1.86s-1.322,2.599-1.322,4.074v40.571c0,1.536,0.44,2.923,1.322,4.163s2.409,1.86,4.585,1.86H354.308z
			"/>
		<path fill="#FFFFFF" d="M423.078,382.291c0-2.835,1.733-4.252,5.202-4.252c3.468,0,5.202,1.417,5.202,4.252v61.122
			c0,2.067-1.088,3.573-3.263,4.518h0.089c-0.941,0.414-1.94,0.739-2.998,0.975s-2.087,0.354-3.086,0.354
			c-0.765,0-1.558-0.075-2.381-0.222c-0.823-0.148-1.602-0.384-2.336-0.709c-0.736-0.324-1.411-0.767-2.028-1.329
			c-0.617-0.561-1.102-1.254-1.454-2.081l-19.133-47.924l-2.381,0.266v47.835c0,2.835-1.764,4.252-5.29,4.252
			c-3.469,0-5.202-1.417-5.202-4.252v-61.033c0-2.421,1.058-4.045,3.174-4.872c1.939-0.767,3.997-1.151,6.172-1.151
			c1.528,0,3.071,0.31,4.629,0.93c1.557,0.62,2.747,1.787,3.571,3.499l19.044,48.012l2.469-0.266V382.291z"/>
		<path fill="#F79320" d="M475.361,394.604c-1.41,0-2.146-0.975-2.204-2.923c-0.06-2.007,0.675-3.012,2.204-3.012
			c0.939,0,2.057-0.118,3.351-0.354c1.292-0.235,2.733-0.561,4.32-0.975c1.469-0.531,2.763-1.432,3.88-2.702
			c1.115-1.269,1.909-2.76,2.38-4.473c0.354-0.944,0.94-1.713,1.764-2.304c0.822-0.59,1.909-0.855,3.263-0.797
			c2.762,0.119,4.144,1.565,4.144,4.34v64.666c0,2.775-1.734,4.163-5.202,4.163c-3.469,0-5.202-1.388-5.202-4.163v-51.467H475.361z"
			/>
	</g>
</g>
<g id="Layer_2">
	<path fill="#F15B26" d="M488.058,395.063L488,427.951c0,0,0.437,3.802,5.26,3.65c0,0,4.429,0.477,5.168-3.546l0.034-27.493
		C498.462,400.563,497.115,393.146,488.058,395.063z"/>
	<path fill="#EC2027" d="M488.058,421.916L488,446.583c0,0,0,4.042,5.26,3.65c0,0,4.881,0.376,5.168-3.546L498.462,428
		C498.462,428,497.115,419.999,488.058,421.916z"/>
</g>
<g id="Layer_3">
	<polygon points="307.994,333.788 344.891,327.794 330.639,293.293 	"/>
	<polygon fill="#020202" points="266.033,327.659 302.931,333.653 279.087,293.159 	"/>
	<polygon points="281.618,288.897 328.107,288.897 305.461,260.39 	"/>
	<polygon fill="#020202" points="281.219,291.561 328.506,291.561 305.461,332.856 	"/>
	<polygon fill="#F15B26" points="308.927,260.39 331.036,288.499 344.891,281.171 	"/>
	<polygon points="332.502,290.763 346.489,324.463 346.489,283.303 	"/>
	<polygon points="266.033,281.171 278.554,288.499 301.731,260.525 	"/>
	<polygon fill="#F79320" points="264.567,283.435 277.223,290.763 264.567,324.064 	"/>
	<polygon points="266.699,330.59 304.13,352.171 304.13,336.585 	"/>
	<polygon fill="#EC2027" points="306.795,336.585 306.795,352.171 344.226,330.59 	"/>
</g>
</svg>
